<svg width="573" height="293" viewBox="0 0 573 293" fill="none" xmlns="http://www.w3.org/2000/svg">
<path d="M256.053 172.803C252.221 172.803 248.881 172.113 246.032 170.74C243.184 169.366 240.972 167.314 239.401 164.589C237.83 161.864 237.044 158.51 237.044 154.532V120.197H243.159V154.604C243.159 158.828 244.288 161.996 246.549 164.108C248.807 166.221 251.974 167.276 256.053 167.276C260.133 167.276 263.297 166.221 265.558 164.108C267.816 161.996 268.948 158.828 268.948 154.604V120.197H275.137V154.529C275.137 158.507 274.351 161.861 272.78 164.586C271.209 167.311 268.986 169.363 266.113 170.737C263.24 172.11 259.888 172.8 256.056 172.8L256.053 172.803Z" fill="white"/>
<path d="M286.479 171.77V120.197H292.669V166.171H318.749V171.77H286.479Z" fill="white"/>
<path d="M333.04 171.77V125.796H316.465V120.197H355.808V125.796H339.232V171.77H333.043H333.04Z" fill="white"/>
<path d="M363.69 171.77V120.197H384.54C387.732 120.197 390.545 120.749 392.976 121.854C395.407 122.958 397.311 124.532 398.687 126.57C400.061 128.609 400.75 131.053 400.75 133.902V134.712C400.75 138.102 399.94 140.778 398.319 142.742C396.698 144.706 394.784 146.033 392.572 146.72V147.75C394.342 147.799 395.8 148.376 396.957 149.48C398.11 150.585 398.687 152.244 398.687 154.452V171.767H392.572V155.189C392.572 153.716 392.166 152.587 391.355 151.799C390.545 151.013 389.328 150.62 387.707 150.62H369.877V171.764H363.688L363.69 171.77ZM369.879 145.025H383.952C387.342 145.025 389.957 144.203 391.798 142.558C393.641 140.912 394.561 138.616 394.561 135.668V135.152C394.561 132.204 393.652 129.911 391.836 128.262C390.018 126.617 387.392 125.796 383.952 125.796H369.879V145.025Z" fill="white"/>
<path d="M406.125 171.77L422.039 120.197H432.941L448.855 171.77H442.446L438.468 158.73H416.514L412.537 171.77H406.128H406.125ZM418.061 153.131H436.848L428.008 123.955H426.978L418.064 153.131H418.061Z" fill="white"/>
<path d="M132.266 146.5C132.266 151.733 133.392 156.705 135.417 161.183C135.677 161.757 135.471 162.433 134.928 162.749C134.348 163.084 133.603 162.886 133.268 162.307L124.146 146.5L133.268 130.697C133.603 130.117 134.345 129.916 134.928 130.254C135.471 130.57 135.677 131.246 135.417 131.82C133.392 136.3 132.266 141.267 132.266 146.503V146.5Z" fill="white"/>
<path d="M165.505 109.783V109.794C165.505 110.412 165.04 110.94 164.425 111C153.948 112.019 144.795 117.577 138.968 125.683C138.6 126.194 137.913 126.356 137.37 126.04L137.361 126.035C136.782 125.699 136.581 124.958 136.916 124.378L146.042 108.572H164.29C164.961 108.572 165.502 109.116 165.502 109.783H165.505Z" fill="white"/>
<path d="M198.515 126.035L198.504 126.04C197.957 126.353 197.27 126.194 196.905 125.683C191.073 117.579 181.925 112.019 171.443 111C170.828 110.94 170.363 110.412 170.363 109.794V109.783C170.363 109.113 170.907 108.572 171.575 108.572H189.829L198.957 124.378C199.292 124.958 199.094 125.702 198.512 126.035H198.515Z" fill="white"/>
<path d="M211.731 146.5L202.608 162.304C202.273 162.883 201.531 163.084 200.949 162.746C200.405 162.43 200.199 161.754 200.46 161.18C202.485 156.705 203.611 151.733 203.611 146.497C203.611 141.264 202.485 136.295 200.46 131.814C200.202 131.24 200.405 130.564 200.949 130.249C201.529 129.913 202.273 130.111 202.608 130.691L211.731 146.494V146.5Z" fill="white"/>
<path d="M198.96 168.622L189.832 184.428H171.584C170.913 184.428 170.372 183.884 170.372 183.217V183.206C170.372 182.588 170.836 182.06 171.449 182C181.926 180.978 191.079 175.423 196.906 167.317C197.274 166.806 197.96 166.644 198.504 166.96L198.513 166.965C199.092 167.3 199.293 168.042 198.958 168.622H198.96Z" fill="white"/>
<path d="M165.51 183.206V183.217C165.51 183.887 164.966 184.428 164.298 184.428H146.044L136.916 168.622C136.581 168.042 136.779 167.298 137.361 166.965L137.372 166.96C137.919 166.647 138.605 166.806 138.971 167.317C144.803 175.421 153.95 180.981 164.433 182C165.048 182.06 165.512 182.588 165.512 183.206H165.51Z" fill="white"/>
<path d="M190.189 146.5C190.189 147.379 189.477 148.09 188.598 148.09H182.731C175.437 148.09 169.526 154.002 169.526 161.295V167.163C169.526 168.042 168.814 168.753 167.935 168.753C167.056 168.753 166.345 168.042 166.345 167.163V161.295C166.345 154.002 160.433 148.09 153.14 148.09H147.272C146.393 148.09 145.682 147.379 145.682 146.5C145.682 145.621 146.393 144.909 147.272 144.909H153.14C160.433 144.909 166.345 138.998 166.345 131.704V125.837C166.345 124.958 167.056 124.246 167.935 124.246C168.814 124.246 169.526 124.958 169.526 125.837V131.704C169.526 138.998 175.437 144.909 182.731 144.909H188.598C189.477 144.909 190.189 145.621 190.189 146.5Z" fill="white"/>
</svg>
